# xmcd
#
# Track frame offsets:
#	150
#	19798
#	54889
#	77714
#	96296
#	115860
#	123735
#	147085
#	161536
#	178296
#	193697
#
# Disc length: 2851 seconds
# Revision: 0
# Processed by: cddbd v1.5.2PL0 Copyright (c) Steve Scherf et al.
# Submitted via: dBpowerAMP V12.0
#
DISCID=920b210b
DTITLE=Hale Dwoskin - Absolute Freedom CD 07 - Remembering Who You Are
DYEAR=2005
DGENRE=Speech
TTITLE0=Introduction
TTITLE1=Welcoming What Is - Remembering and Forgetting Your Name - What You Know - the Past
TTITLE2=Remembering - Forgetting What You See - Hear - What Is Felt
TTITLE3=Remembering - Forgetting Your Problems - Your Limitation
TTITLE4=Remembering - Forgetting the Body - the Mind - Take a Break
TTITLE5=Welcome Back
TTITLE6=Remembering - Forgetting Your Freedom - What Is - Everything Is Nothing
TTITLE7=Remembering - Forgetting Your True Nature - the Self
TTITLE8=Remembering - Forgetting the Stillness - the Silence - What Is Changeless
TTITLE9=Remembering - Forgetting Love - All Is Well
TTITLE10=Remembering - Forgetting Who You Are - And Could You Just Rest
EXTD=
EXTT0=
EXTT1=
EXTT2=
EXTT3=
EXTT4=
EXTT5=
EXTT6=
EXTT7=
EXTT8=
EXTT9=
EXTT10=
PLAYORDER=
